<svg width="880" height="200" viewBox="0 0 880 200" xmlns="http://www.w3.org/2000/svg">
  <defs>
    <linearGradient id="bg" x1="0" y1="0" x2="1" y2="1">
      <stop offset="0%" stop-color="#0B3D5C"/>
      <stop offset="55%" stop-color="#0F6E8C"/>
      <stop offset="100%" stop-color="#15A0A6"/>
    </linearGradient>
    <linearGradient id="wave1" x1="0" y1="0" x2="0" y2="1">
      <stop offset="0%" stop-color="#7FD8E8" stop-opacity="0.55"/>
      <stop offset="100%" stop-color="#7FD8E8" stop-opacity="0.05"/>
    </linearGradient>
    <linearGradient id="wave2" x1="0" y1="0" x2="0" y2="1">
      <stop offset="0%" stop-color="#BDEDF5" stop-opacity="0.4"/>
      <stop offset="100%" stop-color="#BDEDF5" stop-opacity="0.03"/>
    </linearGradient>
  </defs>

  <rect width="880" height="200" rx="16" fill="url(#bg)"/>

  <path d="M0 138 Q110 108 220 138 T440 138 T660 138 T880 138 V200 H0 Z" fill="url(#wave1)"/>
  <path d="M0 160 Q146 132 293 160 T586 160 T880 160 V200 H0 Z" fill="url(#wave2)"/>

  <g opacity="0.9">
    <path d="M64 46 C52 66 44 78 44 92 a20 20 0 0 0 40 0 c0 -14 -8 -26 -20 -46 Z" fill="#BDEDF5"/>
    <circle cx="57" cy="94" r="5" fill="#0F6E8C"/>
  </g>
  <g opacity="0.55">
    <path d="M112 78 C106 88 102 94 102 101 a10 10 0 0 0 20 0 c0 -7 -4 -13 -10 -23 Z" fill="#BDEDF5"/>
  </g>

  <text x="150" y="78" font-family="Arial, Helvetica, sans-serif" font-size="38" font-weight="700" fill="#FFFFFF">kwater-ailab-4b-lora</text>
  <text x="150" y="112" font-family="Arial, Helvetica, sans-serif" font-size="17" fill="#CFEFF6">K-water AI연구소 최초의 LoRA 파인튜닝 언어모델</text>
  <text x="150" y="138" font-family="Arial, Helvetica, sans-serif" font-size="14" fill="#9FDCEA">공개 연구보고서 기반 · 물 특화 파운데이션을 향한 첫 번째 가중치 업데이트</text>

  <g transform="translate(742,40)" opacity="0.95">
    <rect x="0" y="52" width="96" height="14" rx="7" fill="#BDEDF5" opacity="0.9"/>
    <rect x="8" y="34" width="80" height="14" rx="7" fill="#7FD8E8" opacity="0.85"/>
    <rect x="16" y="16" width="64" height="14" rx="7" fill="#4FBFD6" opacity="0.8"/>
    <rect x="24" y="-2" width="48" height="14" rx="7" fill="#2AA7C4" opacity="0.75"/>
    <circle cx="48" cy="88" r="4" fill="#FFFFFF"/>
    <path d="M48 70 v12" stroke="#FFFFFF" stroke-width="2" stroke-linecap="round"/>
  </g>
  <text x="790" y="120" font-family="Arial, Helvetica, sans-serif" font-size="11" fill="#9FDCEA" text-anchor="middle">LoRA on Qwen3-4B</text>
</svg>
